<svg xmlns="http://www.w3.org/2000/svg" viewBox="0 0 24 24" fill="currentColor"><path d="M2.1 14.55a11.94 11.94 0 007.35 7.35L2.1 14.55zm-.6-2.4a12 12 0 0010.45 10.45L1.5 12.15zM12.15 1.5L1.5 12.15a12 12 0 001.5 3.9L15.45 3.6A11.86 11.86 0 0012.15 1.5zm5.7 3L4.5 17.85a11.94 11.94 0 002.4 2.25L19.35 6.75a11.86 11.86 0 00-1.5-2.25zm2.7 3.45L8.7 19.8a12.04 12.04 0 003.15 1.65L22.5 8.8a11.78 11.78 0 00-1.95-2.85v2zm2.55 4.2l-9.75 9.75c1.05.15 2.1.1 3.15-.15l7.65-7.65c-.15-1.05-.45-2.05-1.05-2.95v1z"/></svg>
