<svg xmlns="http://www.w3.org/2000/svg" viewBox="0 0 24 24" fill="currentColor"><path d="M4.459 4.208c.746.606 1.026.56 2.428.466l13.215-.793c.28 0 .047-.28-.046-.326L18.12 2.168c-.42-.326-.98-.7-2.055-.607l-12.79.933c-.467.047-.56.28-.374.466zM5.252 7.617v13.874c0 .746.373 1.027 1.214.98l14.523-.84c.84-.046.933-.56.933-1.166V6.824c0-.607-.233-.933-.746-.886l-15.177.886c-.56.047-.747.327-.747.793zm14.337.84c.093.42 0 .84-.42.886l-.7.14v10.264c-.607.327-1.166.514-1.633.514-.746 0-.933-.234-1.493-.933l-4.573-7.186v6.953l1.446.327s0 .84-1.166.84l-3.219.187c-.093-.187 0-.653.327-.746l.84-.233V9.854L7.846 9.76c-.093-.42.14-1.026.793-1.073l3.453-.233 4.76 7.28v-6.44l-1.213-.14c-.093-.513.28-.886.746-.933zM2.404 1.468l13.355-.98c1.633-.14 2.055-.046 3.08.7l4.247 2.986c.7.513.933.653.933 1.213V21.49c0 1.12-.42 1.773-1.866 1.866l-15.457.933c-1.073.047-1.586-.093-2.146-.793L1.378 19.29c-.7-.933-.98-1.633-.98-2.426V3.335c0-1.02.42-1.773 2.006-1.867z"/></svg>
