<svg xmlns="http://www.w3.org/2000/svg" viewBox="0 0 24 24" fill="currentColor"><path d="M17.128 0a10.134 10.134 0 00-2.755.403l-.063.02A10.922 10.922 0 0012.6.258C11.422.238 10.41.524 9.594 1 8.79.721 7.122.24 5.364.336 4.14.403 2.804.775 1.814 1.82.827 2.865.305 4.482.415 6.682c.03.607.203 1.597.49 2.879s.69 2.783 1.193 4.152c.503 1.37 1.054 2.6 1.915 3.436.43.419.963.715 1.572.715.757 0 1.345-.398 1.867-.986.385-.433.728-.974 1.088-1.49-.103.07-.178.126-.178.126l.009-.006a5.612 5.612 0 003.742 1.453c.083 0 .138-.01.208-.017a3.89 3.89 0 01-.238.405c-.326.49-.577.727-1.029 1.138-.455.412-.283 1.063.152 1.281.397.2 1.108.362 1.895.362.813 0 1.399-.148 1.973-.504.577-.358 1.036-.893 1.398-1.665.268-.573.46-1.255.596-2.088.034.005.067.017.1.02.473.04.905.027 1.293-.044l.006-.001c.462-.088.853-.232 1.218-.478.054-.037.127-.088.198-.16a.867.867 0 00.262-.637c-.006-.166-.073-.323-.2-.445a.86.86 0 00-.119-.088c.094-.168.178-.34.238-.536a2.345 2.345 0 00.098-.462c.026-.27.012-.587-.107-.857a1.093 1.093 0 00-.38-.458 3.124 3.124 0 00.25-1.382c-.028-.535-.142-1.103-.39-1.655-.063-.143-.147-.273-.22-.414.916-1.074 1.593-2.39 1.79-3.963.105-.843.07-1.756-.17-2.678-.24-.922-.7-1.862-1.52-2.603A5.117 5.117 0 0017.128 0z"/></svg>
