<svg xmlns="http://www.w3.org/2000/svg" viewBox="0 0 24 24" fill="currentColor"><path d="M13.91 2.505c-.873-1.448-2.972-1.448-3.844 0L6.572 8.17a10.014 10.014 0 014.473 4.227A10.04 10.04 0 0115.5 21.5h-1.97a8.07 8.07 0 00-3.593-6.707 8.066 8.066 0 00-3.597-1.47l-.443.77A6.07 6.07 0 019.5 21.5H7.53a4.072 4.072 0 00-1.905-3.449l-1.48 2.562a.474.474 0 01-.645.173.468.468 0 01-.173-.644l5.603-9.702a5.06 5.06 0 014.289 5.06h1.97a7.063 7.063 0 00-5.253-6.833L12.008 4.96 18.37 15.99l.443.77.965 1.67c.17.29.063.665-.228.835a.608.608 0 01-.835-.228l-.965-1.67h.002c-1.468 0-2.905.416-4.143 1.2A7.06 7.06 0 0010.56 21.5H8.59a9.07 9.07 0 014.316-7.724l2.032-3.518a11.07 11.07 0 00-5.344 5.073l-.808-1.397a12.958 12.958 0 017.167-5.907l.766-1.326-.39-.676z"/></svg>
